<?xml version="1.0" encoding="UTF-8" standalone="no"?><!DOCTYPE svg PUBLIC "-//W3C//DTD SVG 1.1//EN" "http://www.w3.org/Graphics/SVG/1.1/DTD/svg11.dtd"><svg width="100%" height="100%" viewBox="0 0 1382 476" version="1.1" xmlns="http://www.w3.org/2000/svg" xmlns:xlink="http://www.w3.org/1999/xlink" xml:space="preserve" xmlns:serif="http://www.serif.com/" style="fill-rule:evenodd;clip-rule:evenodd;stroke-linejoin:round;stroke-miterlimit:2;"><rect id="Page-9" serif:id="Page 9" x="0" y="0" width="1381.31" height="475.757" style="fill:none;"/><g id="Layer-1" serif:id="Layer 1"><path d="M0.958,15.271l0,9.725l23.088,1.208c11.329,1.217 18.721,3.95 22.171,8.204c3.437,4.25 5.166,11.846 5.166,22.78l0.604,24.904l0,300.1l-0.604,27.941c0,14.992 -1.216,24.709 -3.65,29.167c-2.425,4.458 -9.516,7.283 -21.258,8.504l-13.975,0.609l-0,9.716l192.304,0l0,-9.716l-11.462,-0.609c-11.259,0 -17.984,-2.312 -20.188,-6.966c-2.208,-4.65 -3.312,-14.855 -3.312,-30.613l-0.613,-27.879l0,-43.642l11.463,-12.125c10.441,16.163 21.287,33.138 32.545,50.921c11.25,17.783 19.58,31.321 25.017,40.613c5.417,9.291 8.129,15.954 8.129,19.987c0,6.475 -5.229,9.704 -15.671,9.704l-12.054,0.609l0,9.716l205.721,0l0,-9.716l-14.579,-0.609c-8.108,-1.208 -14.488,-3.629 -19.138,-7.271c-4.662,-3.633 -11.75,-12.625 -21.266,-26.975c-9.513,-14.345 -24.6,-38.187 -45.254,-71.529c-20.655,-33.333 -40.909,-66.154 -60.746,-98.479c5.296,-5.662 11.091,-11.721 17.408,-18.192c6.313,-6.466 13.846,-13.533 22.604,-21.216c8.767,-7.671 15.392,-12.821 19.871,-15.454c4.479,-2.617 10.079,-4.642 16.796,-6.055c6.725,-1.412 12.012,-2.22 15.887,-2.429c3.867,-0.2 7.838,-0.304 11.921,-0.304l0,-9.717l-114.816,0l-0,9.717l20.658,1.217c4.858,0.408 8.596,1.321 11.233,2.737c2.634,1.413 3.954,3.725 3.954,6.954c0,5.259 -4.141,12.938 -12.404,23.038c-8.25,10.096 -23.066,26.262 -44.429,48.496c-21.354,22.229 -42.712,44.25 -64.067,66.058l1.217,-40.125l0,-273.004l-168.271,-0Z" style="fill:url(#_Linear1);fill-rule:nonzero;"/><path d="M461.225,186.688c-28.217,15.054 -42.321,35.187 -42.321,60.408c0,12.604 5.175,22.675 15.542,30.204c10.358,7.529 22.437,11.288 36.262,11.288c25.18,-0 43.355,-4.884 54.53,-14.655c11.17,-9.758 16.762,-20.954 16.762,-33.566c0,-13.429 -4.321,-23.509 -12.946,-30.225c-8.641,-6.709 -12.95,-12.3 -12.95,-16.779c0,-5.696 2.704,-10.375 8.121,-14.042c5.404,-3.663 12.129,-5.496 20.146,-5.496c12.825,0 21.246,3.458 25.258,10.358c4.004,6.9 6.017,18.263 6.017,34.088l0.596,55.396c-0,7.304 -2.225,12.483 -6.675,15.516c-4.463,3.046 -11.85,5.884 -22.179,8.521c-10.321,2.642 -26.421,4.975 -48.288,7.009c-21.871,2.029 -38.079,4.466 -48.604,7.304c-10.533,2.846 -20.863,10.45 -30.983,22.833c-10.125,12.379 -15.188,28.708 -15.188,48.996c0,25.171 8.1,44.858 24.3,59.054c16.196,14.208 37.258,21.304 63.179,21.304c24.3,0 44.046,-4.112 59.234,-12.316c15.187,-8.213 26.012,-20.534 32.5,-36.959c2.829,15.013 11.029,26.971 24.6,35.892c13.562,8.921 29.058,13.383 46.479,13.383c15.791,0 28.745,-1.525 38.875,-4.566c10.121,-3.046 21.566,-10.259 34.325,-21.63c12.75,-11.375 19.133,-34.941 19.133,-70.691l-8.504,-0c-0,16.691 -1.9,31.041 -5.696,43.041c-3.8,12.005 -10.483,18.005 -20.079,18.005c-7.988,-0 -12.979,-3.65 -14.971,-10.984c-2.404,-6.908 -3.6,-16.883 -3.6,-29.904l-0,-139.762c-0,-28.48 -13.804,-49.53 -41.404,-63.159c-27.6,-13.633 -57.838,-20.45 -90.713,-20.45c-38.966,0 -72.55,7.529 -100.758,22.584Zm64.554,235.6c-2.812,-10.934 -4.208,-25.525 -4.208,-43.759c-0,-12.15 1.104,-23.996 3.304,-35.537c2.204,-11.542 5.204,-19.346 9.008,-23.396c3.809,-4.042 10.613,-8.204 20.425,-12.45c9.817,-4.258 16.529,-8.821 20.134,-13.679l1.8,0.604l-0,116.058c-1.6,6.892 -5.3,13.375 -11.109,19.45c-5.808,6.071 -12.525,9.113 -20.125,9.113c-10.02,-0 -16.429,-5.467 -19.229,-16.404Z" style="fill:url(#_Linear2);fill-rule:nonzero;"/><path d="M879.904,49.292c-4.891,10.125 -11.912,21.47 -21.066,34.02c-9.163,12.555 -20.563,25.421 -34.205,38.575c-13.637,13.163 -27.97,24.709 -43,34.625c-15.025,9.93 -29.425,16.705 -43.187,20.355l-0,16.4l41.308,-0l0,187.712c0,26.329 10.792,46.775 32.375,61.358c21.588,14.575 46.438,21.867 74.542,21.867c43.892,0 72.483,-8.6 85.771,-25.821c13.291,-17.208 19.933,-37.146 19.933,-59.833l-8.504,-0c-0,16.2 -3.629,30.883 -10.863,44.046c-7.241,13.162 -18.704,19.741 -34.387,19.741c-11.667,0 -21.313,-4.454 -28.963,-13.366c-7.633,-8.904 -11.45,-22.071 -11.45,-39.484l-1.208,-30.983l0,-165.237l70.583,-0l8.446,-23.084l-79.029,0l0,-120.891l-17.096,-0Z" style="fill:url(#_Linear3);fill-rule:nonzero;"/><path d="M1041.37,206.325c-31.85,28.154 -47.779,64.092 -47.779,107.829c-0,46.984 15.412,83.742 46.254,110.263c30.837,26.529 70.208,39.787 118.091,39.787c34.088,0 63.709,-8.6 88.863,-25.821c25.154,-17.208 43.417,-41.004 54.787,-71.379l-9.775,-4.246c-7.745,21.059 -18.841,38.571 -33.308,52.542c-14.467,13.975 -34.125,20.963 -58.975,20.963c-17.292,-0 -31.675,-4.35 -43.129,-13.067c-11.467,-8.7 -20.317,-20.138 -26.542,-34.317c-6.237,-14.175 -10.458,-28.858 -12.671,-44.041c-2.212,-15.188 -3.312,-30.075 -3.312,-44.659l186.5,0c-0,-38.058 -12.379,-70.258 -37.133,-96.587c-24.755,-26.321 -60.467,-39.488 -107.13,-39.488c-44.637,0 -82.879,14.079 -114.741,42.221Zm73.708,42.829c2.013,-25.516 5.525,-44.441 10.554,-56.8c5.021,-12.35 13.967,-18.529 26.825,-18.529c14.867,0 25.317,6.379 31.354,19.138c6.025,12.754 9.046,31.491 9.046,56.191c0,9.325 0.096,17.013 0.292,23.084c0.204,6.079 0.504,11.341 0.912,15.795l-80.187,0l1.204,-38.879Z" style="fill:url(#_Linear4);fill-rule:nonzero;"/></g><defs><linearGradient id="_Linear1" x1="0" y1="0" x2="1" y2="0" gradientUnits="userSpaceOnUse" gradientTransform="matrix(423.417,0,0,423.417,0.961297,236.7)"><stop offset="0" style="stop-color:#003463;stop-opacity:1"/><stop offset="1" style="stop-color:#0055a3;stop-opacity:1"/></linearGradient><linearGradient id="_Linear2" x1="0" y1="0" x2="1" y2="0" gradientUnits="userSpaceOnUse" gradientTransform="matrix(342.626,0,0,342.626,404.326,314.156)"><stop offset="0" style="stop-color:#003463;stop-opacity:1"/><stop offset="1" style="stop-color:#0055a3;stop-opacity:1"/></linearGradient><linearGradient id="_Linear3" x1="0" y1="0" x2="1" y2="0" gradientUnits="userSpaceOnUse" gradientTransform="matrix(253.931,0,0,253.931,738.445,256.749)"><stop offset="0" style="stop-color:#003463;stop-opacity:1"/><stop offset="1" style="stop-color:#0055a3;stop-opacity:1"/></linearGradient><linearGradient id="_Linear4" x1="0" y1="0" x2="1" y2="0" gradientUnits="userSpaceOnUse" gradientTransform="matrix(307.995,0,0,307.995,993.591,314.156)"><stop offset="0" style="stop-color:#003463;stop-opacity:1"/><stop offset="1" style="stop-color:#0055a3;stop-opacity:1"/></linearGradient></defs></svg>